<?xml version="1.0" standalone="no"?>
<!DOCTYPE svg PUBLIC "-//W3C//DTD SVG 20010904//EN"
 "http://www.w3.org/TR/2001/REC-SVG-20010904/DTD/svg10.dtd">
<svg version="1.0" xmlns="http://www.w3.org/2000/svg"
 width="200.000000pt" height="200.000000pt" viewBox="0 0 200.000000 200.000000"
 preserveAspectRatio="xMidYMid meet">

<g transform="translate(0.000000,200.000000) scale(0.100000,-0.100000)"
fill="#000000" stroke="none">
<path d="M837 1885 c-440 -84 -759 -488 -734 -930 24 -418 318 -758 726 -841
112 -22 304 -15 411 16 310 88 541 321 632 637 30 104 32 351 4 453 -72 263
-239 467 -479 585 -51 25 -128 54 -172 66 -106 27 -284 34 -388 14z m378 -65
c251 -64 474 -259 571 -498 48 -120 59 -179 59 -327 -1 -166 -20 -248 -90
-385 -84 -161 -204 -281 -366 -365 -136 -70 -218 -89 -384 -90 -148 0 -207 11
-327 59 -238 96 -430 316 -499 571 -33 123 -31 319 5 438 100 333 362 564 699
618 79 12 242 2 332 -21z"/>
<path d="M922 1809 c3 -9 22 -12 64 -10 134 5 322 -48 442 -125 130 -84 259
-238 315 -377 85 -212 72 -463 -33 -667 -50 -95 -123 -185 -203 -250 -65 -53
-184 -119 -252 -140 -44 -14 -62 -26 -52 -36 10 -10 106 25 187 68 197 105
341 283 404 500 107 369 -53 753 -396 951 -25 15 -88 41 -140 59 -79 27 -111
32 -217 36 -99 4 -123 2 -119 -9z"/>
<path d="M733 1780 c-251 -89 -444 -292 -525 -550 -20 -66 -23 -95 -23 -235 0
-155 1 -163 33 -253 51 -147 114 -245 225 -349 119 -111 260 -180 427 -209
102 -17 201 -16 208 4 3 9 -17 12 -78 12 -322 0 -619 202 -740 504 -166 414
44 885 467 1044 40 15 73 33 73 40 0 15 -3 15 -67 -8z"/>
<path d="M920 1763 c0 -6 46 -13 103 -16 196 -12 353 -77 488 -204 169 -159
249 -358 236 -588 -16 -303 -215 -568 -499 -664 -29 -10 -54 -23 -56 -30 -13
-40 194 53 290 129 258 206 358 543 253 857 -77 231 -261 410 -505 493 -71 24
-310 42 -310 23z"/>
<path d="M743 1730 c-242 -86 -430 -293 -493 -544 -25 -99 -27 -257 -4 -359
58 -257 257 -479 506 -562 129 -43 315 -59 326 -27 3 9 -16 12 -73 12 -211 0
-400 82 -548 239 -85 91 -144 196 -179 317 -28 101 -30 275 -4 373 65 240 227
424 456 516 73 29 96 46 73 51 -4 2 -32 -6 -60 -16z"/>
<path d="M932 1710 c2 -6 44 -12 93 -15 176 -8 324 -69 448 -185 161 -150 237
-340 224 -554 -17 -280 -206 -531 -464 -617 -35 -11 -63 -25 -63 -31 0 -19 70
0 159 44 71 35 103 59 182 137 78 79 102 111 136 181 59 120 76 194 77 325 0
133 -17 205 -78 330 -92 187 -275 332 -479 380 -72 17 -240 20 -235 5z"/>
<path d="M743 1676 c-195 -73 -357 -241 -429 -446 -34 -99 -44 -290 -20 -392
33 -142 116 -281 228 -383 70 -63 208 -136 301 -160 74 -18 197 -30 232 -21
46 12 16 26 -54 26 -195 0 -372 78 -511 227 -178 191 -233 455 -145 706 35
101 81 172 165 257 82 82 156 130 252 165 34 12 64 28 66 34 5 16 -15 13 -85
-13z"/>
<path d="M930 1663 c0 -6 42 -13 93 -16 179 -12 309 -69 433 -192 137 -135
201 -300 191 -490 -5 -105 -40 -219 -93 -307 -73 -119 -213 -232 -341 -273
-61 -19 -72 -41 -17 -32 111 18 289 152 372 279 100 154 133 346 90 528 -5 25
-30 87 -55 139 -37 77 -59 108 -122 170 -135 134 -259 190 -443 198 -67 4
-108 2 -108 -4z"/>
<path d="M749 1626 c-180 -75 -325 -229 -391 -416 -19 -56 -22 -85 -23 -205 0
-117 4 -151 22 -210 32 -101 88 -189 174 -276 62 -63 93 -85 170 -122 52 -25
119 -51 149 -58 75 -17 212 -18 217 -1 4 9 -13 12 -64 12 -99 0 -196 24 -293
71 -68 33 -101 59 -165 123 -134 136 -190 272 -189 461 1 92 6 123 29 194 63
187 211 342 386 405 62 23 89 46 52 46 -10 -1 -43 -11 -74 -24z"/>
<path d="M940 1611 c0 -7 20 -11 50 -11 148 0 308 -64 418 -165 118 -110 180
-243 189 -405 13 -242 -112 -456 -329 -565 -50 -25 -96 -45 -104 -45 -8 0 -14
-7 -14 -16 0 -20 20 -14 129 37 148 70 276 223 325 388 75 255 -34 543 -261
692 -101 66 -176 90 -300 96 -73 4 -103 2 -103 -6z"/>
<path d="M721 1554 c-119 -59 -210 -147 -268 -260 -61 -118 -76 -186 -70 -324
6 -138 27 -207 96 -313 92 -141 243 -242 408 -273 89 -16 174 -16 180 2 2 7
-29 13 -94 17 -166 9 -297 70 -408 189 -210 227 -215 571 -10 805 53 61 158
132 235 160 30 11 56 26 58 32 7 22 -38 10 -127 -35z"/>
<path d="M940 1561 c0 -4 39 -11 86 -15 253 -19 447 -180 509 -421 60 -236
-63 -503 -285 -614 -41 -20 -86 -40 -100 -44 -18 -4 -22 -9 -14 -17 15 -15
105 19 180 69 169 109 276 324 259 519 -20 238 -165 426 -388 503 -64 23 -100
29 -164 29 -46 0 -83 -4 -83 -9z"/>
<path d="M798 1536 c-136 -56 -239 -146 -301 -264 -49 -94 -67 -168 -67 -282
0 -78 5 -109 29 -177 79 -229 282 -380 516 -386 55 -1 79 2 82 11 3 9 -12 12
-59 12 -229 0 -437 151 -516 374 -35 98 -36 241 -4 336 59 172 174 293 333
351 32 12 59 25 59 30 0 18 -19 17 -72 -5z"/>
<path d="M945 1510 c-4 -6 12 -10 42 -10 240 -1 455 -171 502 -398 53 -254
-94 -500 -351 -586 -10 -3 -18 -11 -18 -17 0 -31 157 42 231 109 223 200 234
547 24 757 -65 65 -157 119 -239 141 -60 16 -182 19 -191 4z"/>
<path d="M806 1485 c-151 -61 -264 -187 -310 -344 -21 -71 -21 -211 0 -282 41
-139 144 -266 264 -327 105 -53 286 -80 298 -44 3 8 -12 12 -52 12 -247 0
-455 177 -497 423 -38 227 104 467 322 544 27 10 49 21 49 25 0 17 -20 15 -74
-7z"/>
<path d="M950 1461 c0 -6 16 -11 39 -11 252 0 460 -203 461 -450 1 -196 -127
-367 -322 -433 -10 -4 -18 -11 -18 -17 0 -38 148 37 226 114 238 238 166 623
-144 769 -51 24 -81 31 -153 35 -63 3 -89 1 -89 -7z"/>
<path d="M819 1436 c-71 -29 -101 -51 -165 -118 -94 -99 -129 -199 -122 -348
4 -81 10 -108 35 -161 60 -129 150 -212 279 -259 71 -25 194 -33 201 -12 3 8
-10 12 -49 12 -214 1 -399 159 -439 375 -37 200 91 425 282 492 27 10 49 23
49 30 0 17 -6 16 -71 -11z"/>
<path d="M950 1413 c0 -6 31 -13 70 -17 270 -25 438 -267 360 -517 -33 -107
-138 -220 -234 -252 -41 -14 -60 -37 -31 -37 37 0 133 57 186 109 97 98 142
231 120 362 -23 141 -109 257 -237 320 -54 27 -81 33 -150 37 -51 3 -84 1 -84
-5z"/>
<path d="M849 1395 c-54 -19 -109 -57 -155 -106 -87 -93 -118 -179 -112 -314
3 -79 8 -101 37 -158 64 -131 180 -216 325 -239 40 -6 81 -8 90 -5 35 14 13
25 -59 29 -262 17 -436 282 -348 533 33 96 131 197 226 233 24 10 45 21 46 27
4 15 -10 15 -50 0z"/>
<path d="M960 1363 c0 -6 27 -13 59 -16 137 -15 244 -87 298 -202 24 -51 28
-73 28 -145 0 -76 -4 -93 -33 -152 -39 -79 -99 -137 -178 -169 -56 -23 -69
-39 -34 -39 31 0 115 46 160 86 51 46 105 155 114 228 26 208 -132 401 -340
414 -45 3 -74 1 -74 -5z"/>
<path d="M830 1330 c-68 -35 -130 -98 -167 -170 -25 -50 -28 -65 -28 -160 0
-95 3 -111 28 -162 34 -70 103 -140 168 -173 78 -40 235 -59 215 -26 -3 4 -34
11 -70 13 -215 18 -364 222 -312 429 28 108 90 182 194 231 61 29 79 48 45 48
-10 -1 -43 -14 -73 -30z"/>
<path d="M960 1313 c0 -6 27 -13 60 -16 115 -12 200 -69 247 -165 24 -48 28
-70 28 -137 0 -70 -4 -87 -30 -134 -34 -62 -90 -113 -151 -138 -44 -18 -52
-27 -35 -37 16 -10 129 54 162 92 116 132 112 327 -10 449 -59 58 -122 87
-203 91 -40 3 -68 0 -68 -5z"/>
<path d="M849 1285 c-52 -27 -108 -85 -141 -147 -19 -36 -23 -58 -23 -138 0
-79 4 -103 23 -142 51 -103 160 -177 268 -181 80 -3 83 19 4 26 -85 7 -162 47
-210 108 -49 62 -64 107 -64 189 0 115 71 225 176 270 48 21 63 40 31 40 -10
-1 -39 -12 -64 -25z"/>
<path d="M965 1030 c-24 -27 -13 -68 22 -76 33 -9 57 6 61 38 6 50 -49 76 -83
38z m58 -24 c8 -19 -15 -37 -32 -26 -17 10 -7 40 13 40 7 0 16 -6 19 -14z"/>
</g>
</svg>
